<?xml version="1.0" encoding="UTF-8"?>
<svg width="60px" height="76px" viewBox="0 0 60 76" version="1.1" xmlns="http://www.w3.org/2000/svg" xmlns:xlink="http://www.w3.org/1999/xlink">
    <!-- Generator: sketchtool 47.1 (45422) - http://www.bohemiancoding.com/sketch -->
    <title>78030B53-0F00-4F03-A508-D855F3C4D78A</title>
    <desc>Created with sketchtool.</desc>
    <defs>
        <linearGradient x1="53.6684445%" y1="30.2006041%" x2="50%" y2="100%" id="linearGradient-1">
            <stop stop-color="#0072FF" offset="0%"></stop>
            <stop stop-color="#00C6FF" offset="100%"></stop>
        </linearGradient>
    </defs>
    <g id="Page-1" stroke="none" stroke-width="1" fill="none" fill-rule="evenodd">
        <g id="landing-page" transform="translate(-954.000000, -717.000000)" fill-rule="nonzero">
            <g id="Group-5" transform="translate(954.000000, 717.000000)">
                <g id="racing">
                    <polygon id="Shape" fill="#0575E6" points="46.3817647 22.1108824 44.1911765 20.7175 48.0407353 14.6672059 50.2314706 16.0605882"></polygon>
                    <path d="M51.4742647,17.6219118 L52.1719118,16.5260294 C52.5569118,15.9211765 52.3788235,15.1188235 51.7739706,14.7336765 L48.5914706,12.7075 C47.9866176,12.3225 47.1842647,12.5005882 46.7991176,13.1054412 L46.1014706,14.2013235 C45.7164706,14.8061765 45.8945588,15.6085294 46.4994118,15.9936765 L49.6819118,18.0198529 C50.2867647,18.4048529 51.0891176,18.2267647 51.4742647,17.6219118 Z" id="Shape" fill="#0575E6"></path>
                    <polygon id="Shape" fill="#0575E6" points="13.6182353 22.1108824 9.76852941 16.0605882 11.9592647 14.6672059 15.8088235 20.7175"></polygon>
                    <path d="M30,15.5780882 C25.7048529,15.5780882 22.2108824,12.0842647 22.2108824,7.78897059 C22.2108824,3.49367647 25.7048529,0 30,0 C34.2951471,0 37.7891176,3.49382353 37.7891176,7.78911765 C37.7891176,12.0844118 34.2951471,15.5780882 30,15.5780882 Z M30,2.59632353 C27.1361765,2.59632353 24.8073529,4.92529412 24.8073529,7.78897059 C24.8073529,10.6526471 27.1363235,12.9816176 30,12.9816176 C32.8636765,12.9816176 35.1926471,10.6526471 35.1926471,7.78897059 C35.1926471,4.92529412 32.8638235,2.59632353 30,2.59632353 Z" id="Shape" fill="#0575E6"></path>
                    <rect id="Rectangle-path" fill="#0575E6" x="28.7017647" y="9.08720588" width="2.59632353" height="7.78911765"></rect>
                    <g id="Group" transform="translate(0.000000, 6.470588)" fill="#0575E6">
                        <circle id="Oval" cx="30" cy="38.9655882" r="29.8579412"></circle>
                        <path d="M31.9472059,3.91485294 L28.0526471,3.91485294 C27.3357353,3.91485294 26.7544118,3.33352941 26.7544118,2.61661765 L26.7544118,1.31838235 C26.7544118,0.601470588 27.3357353,0.0201470588 28.0526471,0.0201470588 L31.9472059,0.0201470588 C32.6641176,0.0201470588 33.2454412,0.601470588 33.2454412,1.31838235 L33.2454412,2.61661765 C33.2454412,3.33352941 32.6641176,3.91485294 31.9472059,3.91485294 Z" id="Shape"></path>
                    </g>
                    <circle id="Oval" fill="#2F80ED" cx="30" cy="45.4361765" r="27.2616176"></circle>
                    <circle id="Oval" fill="#FFFFFF" cx="30" cy="45.4361765" r="24.6652941"></circle>
                    <path d="M43.7691176,59.2051471 C47.2929412,55.6814706 49.4726471,50.8132353 49.4726471,45.4360294 C49.4726471,34.6816176 40.7544118,25.9633824 30,25.9633824 L30,45.4360294 L43.7691176,59.2051471 Z" id="Shape" fill="url(#linearGradient-1)"></path>
                    <path d="M8.52573529,17.6219118 L7.82808824,16.5260294 C7.44308824,15.9211765 7.62117647,15.1188235 8.22602941,14.7336765 L11.4085294,12.7075 C12.0133824,12.3225 12.8157353,12.5005882 13.2008824,13.1054412 L13.8985294,14.2013235 C14.2835294,14.8061765 14.1054412,15.6085294 13.5005882,15.9936765 L10.3180882,18.0198529 C9.71308824,18.4048529 8.91073529,18.2267647 8.52573529,17.6219118 Z" id="Shape" fill="#0575E6"></path>
                    <g id="Group" transform="translate(7.794118, 23.235294)" fill="#0575E6">
                        <path d="M22.2058824,0.131911765 L22.2058824,0.131911765 C21.4889706,0.131911765 20.9076471,0.713235294 20.9076471,1.43014706 L20.9076471,4.02647059 C20.9076471,4.74338235 21.4889706,5.32470588 22.2058824,5.32470588 L22.2058824,5.32470588 C22.9227941,5.32470588 23.5041176,4.74338235 23.5041176,4.02647059 L23.5041176,1.43014706 C23.5041176,0.713088235 22.9227941,0.131911765 22.2058824,0.131911765 Z" id="Shape"></path>
                        <path d="M22.2058824,39.0770588 L22.2058824,39.0770588 C21.4889706,39.0770588 20.9076471,39.6583824 20.9076471,40.3752941 L20.9076471,42.9716176 C20.9076471,43.6885294 21.4889706,44.2698529 22.2058824,44.2698529 L22.2058824,44.2698529 C22.9227941,44.2698529 23.5041176,43.6885294 23.5041176,42.9716176 L23.5041176,40.3752941 C23.5041176,39.6583824 22.9227941,39.0770588 22.2058824,39.0770588 Z" id="Shape"></path>
                        <path d="M44.2748529,22.2008824 L44.2748529,22.2008824 C44.2748529,21.4839706 43.6935294,20.9026471 42.9766176,20.9026471 L40.3802941,20.9026471 C39.6633824,20.9026471 39.0820588,21.4839706 39.0820588,22.2008824 L39.0820588,22.2008824 C39.0820588,22.9177941 39.6633824,23.4991176 40.3802941,23.4991176 L42.9766176,23.4991176 C43.6935294,23.4989706 44.2748529,22.9177941 44.2748529,22.2008824 Z" id="Shape"></path>
                        <path d="M5.32955882,22.2008824 L5.32955882,22.2008824 C5.32955882,21.4839706 4.74823529,20.9026471 4.03132353,20.9026471 L1.435,20.9026471 C0.718088235,20.9026471 0.136764706,21.4839706 0.136764706,22.2008824 L0.136764706,22.2008824 C0.136764706,22.9177941 0.718088235,23.4991176 1.435,23.4991176 L4.03132353,23.4991176 C4.74838235,23.4989706 5.32955882,22.9177941 5.32955882,22.2008824 Z" id="Shape"></path>
                    </g>
                    <g id="Group" transform="translate(10.588235, 26.029412)" fill="#0575E6">
                        <path d="M8.37735294,38.5189706 L8.37735294,38.5189706 C8.99823529,38.8775 9.79220588,38.6647059 10.1505882,38.0438235 L11.4488235,35.7954412 C11.8073529,35.1745588 11.5945588,34.3805882 10.9736765,34.0220588 L10.9736765,34.0220588 C10.3527941,33.6635294 9.55882353,33.8763235 9.20044118,34.4972059 L7.90220588,36.7455882 C7.54367647,37.3664706 7.75647059,38.1604412 8.37735294,38.5189706 Z" id="Shape"></path>
                        <path d="M27.8498529,4.79132353 L27.8498529,4.79132353 C28.4707353,5.14985294 29.2647059,4.93705882 29.6232353,4.31617647 L30.9214706,2.06779412 C31.28,1.44691176 31.0672059,0.652941176 30.4463235,0.294558824 L30.4463235,0.294558824 C29.8254412,-0.0639705882 29.0314706,0.148823529 28.6729412,0.769705882 L27.3747059,3.01808824 C27.0163235,3.63897059 27.2291176,4.43294118 27.8498529,4.79132353 Z" id="Shape"></path>
                        <path d="M0.299558824,8.37220588 L0.299558824,8.37220588 C-0.0589705882,8.99308824 0.153823529,9.78705882 0.774705882,10.1454412 L3.02308824,11.4436765 C3.64397059,11.8022059 4.43794118,11.5894118 4.79632353,10.9685294 L4.79632353,10.9685294 C5.15485294,10.3476471 4.94205882,9.55367647 4.32117647,9.19529412 L2.07279412,7.89705882 C1.45191176,7.53867647 0.657941176,7.75132353 0.299558824,8.37220588 Z" id="Shape"></path>
                        <path d="M34.0270588,27.8448529 L34.0270588,27.8448529 C33.6685294,28.4657353 33.8813235,29.2597059 34.5022059,29.6182353 L36.7505882,30.9164706 C37.3714706,31.275 38.1654412,31.0622059 38.5238235,30.4413235 L38.5238235,30.4413235 C38.8823529,29.8204412 38.6695588,29.0264706 38.0486765,28.6679412 L35.8002941,27.3697059 C35.1794118,27.0111765 34.3855882,27.2239706 34.0270588,27.8448529 Z" id="Shape"></path>
                        <path d="M30.4461765,38.5189706 L30.4461765,38.5189706 C29.8252941,38.8775 29.0313235,38.6647059 28.6727941,38.0438235 L27.3745588,35.7954412 C27.0160294,35.1745588 27.2288235,34.3805882 27.8497059,34.0220588 L27.8497059,34.0220588 C28.4705882,33.6635294 29.2645588,33.8763235 29.6230882,34.4972059 L30.9213235,36.7455882 C31.2798529,37.3664706 31.0670588,38.1604412 30.4461765,38.5189706 Z" id="Shape"></path>
                        <path d="M10.9736765,4.79132353 L10.9736765,4.79132353 C10.3527941,5.14985294 9.55882353,4.93705882 9.20044118,4.31617647 L7.90220588,2.06779412 C7.54367647,1.44691176 7.75647059,0.652941176 8.37735294,0.294558824 L8.37735294,0.294558824 C8.99823529,-0.0639705882 9.79220588,0.148823529 10.1505882,0.769705882 L11.4488235,3.01808824 C11.8072059,3.63897059 11.5944118,4.43294118 10.9736765,4.79132353 Z" id="Shape"></path>
                        <path d="M38.5239706,8.37220588 L38.5239706,8.37220588 C38.8825,8.99308824 38.6697059,9.78705882 38.0488235,10.1454412 L35.8004412,11.4436765 C35.1795588,11.8022059 34.3855882,11.5894118 34.0270588,10.9685294 L34.0270588,10.9685294 C33.6685294,10.3476471 33.8813235,9.55367647 34.5022059,9.19529412 L36.7505882,7.89705882 C37.3714706,7.53867647 38.1655882,7.75132353 38.5239706,8.37220588 Z" id="Shape"></path>
                        <path d="M4.79647059,27.8448529 L4.79647059,27.8448529 C5.155,28.4657353 4.94220588,29.2597059 4.32132353,29.6182353 L2.07294118,30.9164706 C1.45205882,31.275 0.658088235,31.0622059 0.299705882,30.4413235 L0.299705882,30.4413235 C-0.0588235294,29.8204412 0.153970588,29.0264706 0.774852941,28.6679412 L3.02323529,27.3697059 C3.64397059,27.0111765 4.43794118,27.2239706 4.79647059,27.8448529 Z" id="Shape"></path>
                    </g>
                    <path d="M44.2798529,61.0142647 C43.9476471,61.0142647 43.6154412,60.8875 43.3620588,60.6339706 L26.4858824,43.7575 C25.9788235,43.2504412 25.9788235,42.4288235 26.4858824,41.9217647 C26.9929412,41.4147059 27.8145588,41.4147059 28.3216176,41.9217647 L45.1979412,58.7980882 C45.705,59.3051471 45.705,60.1267647 45.1979412,60.6338235 C44.9442647,60.8875 44.6120588,61.0142647 44.2798529,61.0142647 Z" id="Shape" fill="#061730"></path>
                    <circle id="Oval" fill="#061730" cx="30" cy="45.4361765" r="2.59632353"></circle>
                </g>
            </g>
        </g>
    </g>
</svg>