<?xml version="1.0" encoding="UTF-8"?>
<svg width="60px" height="60px" viewBox="0 0 60 60" version="1.1" xmlns="http://www.w3.org/2000/svg" xmlns:xlink="http://www.w3.org/1999/xlink">
    <!-- Generator: sketchtool 47.1 (45422) - http://www.bohemiancoding.com/sketch -->
    <title>306E49BD-6A18-4224-A444-DF94B70C01BE</title>
    <desc>Created with sketchtool.</desc>
    <defs>
        <linearGradient x1="53.6684445%" y1="30.2006041%" x2="50%" y2="100%" id="linearGradient-1">
            <stop stop-color="#0072FF" offset="0%"></stop>
            <stop stop-color="#00C6FF" offset="100%"></stop>
        </linearGradient>
    </defs>
    <g id="Page-1" stroke="none" stroke-width="1" fill="none" fill-rule="evenodd">
        <g id="landing-page" transform="translate(-1178.000000, -725.000000)" fill-rule="nonzero">
            <g id="Group-6" transform="translate(1178.000000, 725.000000)">
                <g id="info">
                    <path d="M51.2132813,8.78671875 C45.5469141,3.12058594 38.0132812,0 30,0 L20.625,30 L30,60 C38.0132812,60 45.5469141,56.8794141 51.2132813,51.2132812 C56.8794141,45.5469141 60,38.0132812 60,30 C60,21.9867188 56.8794141,14.4530859 51.2132813,8.78671875 Z" id="Shape" fill="#0575E6"></path>
                    <path d="M8.78671875,8.78671875 C3.12058594,14.4530859 0,21.9867188 0,30 C0,35.4711328 1.47949219,40.7994141 4.28542969,45.4580859 L1.85285156,56.7087891 L3.29109375,58.1470312 L14.5417969,55.7144531 C19.2004687,58.5205078 24.5288672,60 30,60 L30,0 C21.9867188,0 14.4530859,3.12058594 8.78671875,8.78671875 Z" id="Shape" fill="url(#linearGradient-1)"></path>
                    <path d="M30,7.03125 L20.625,30 L30,52.96875 C42.6853125,52.96875 52.96875,42.6853125 52.96875,30 C52.96875,17.3146875 42.6853125,7.03125 30,7.03125 Z" id="Shape" fill="#FFFFFF"></path>
                    <path d="M7.03125,30 C7.03125,42.6853125 17.3146875,52.96875 30,52.96875 L30,7.03125 C17.3146875,7.03125 7.03125,17.3146875 7.03125,30 Z" id="Shape" fill="#FFFFFF"></path>
                    <path d="M30,10.546875 L20.625,30 L30,49.453125 C40.7436328,49.453125 49.453125,40.74375 49.453125,30 C49.453125,19.25625 40.7436328,10.546875 30,10.546875 Z" id="Shape" fill="url(#linearGradient-1)"></path>
                    <path d="M10.546875,30 C10.546875,40.74375 19.2563672,49.453125 30,49.453125 L30,10.546875 C19.2563672,10.546875 10.546875,19.25625 10.546875,30 Z" id="Shape" fill="#2F80ED"></path>
                    <g id="Group" transform="translate(28.242188, 14.062500)" fill="#FFFFFF">
                        <rect id="Rectangle-path" x="0" y="0" width="3.515625" height="3.515625"></rect>
                        <rect id="Rectangle-path" x="0" y="7.03125" width="3.515625" height="24.84375"></rect>
                    </g>
                </g>
            </g>
        </g>
    </g>
</svg>