<?xml version="1.0" encoding="UTF-8"?>
<svg width="60px" height="79px" viewBox="0 0 60 79" version="1.1" xmlns="http://www.w3.org/2000/svg" xmlns:xlink="http://www.w3.org/1999/xlink">
    <!-- Generator: sketchtool 47.1 (45422) - http://www.bohemiancoding.com/sketch -->
    <title>D5403A4F-6474-4A16-89FA-97802A813585</title>
    <desc>Created with sketchtool.</desc>
    <defs>
        <linearGradient x1="53.6684445%" y1="30.2006041%" x2="50%" y2="100%" id="linearGradient-1">
            <stop stop-color="#0072FF" offset="0%"></stop>
            <stop stop-color="#00C6FF" offset="100%"></stop>
        </linearGradient>
    </defs>
    <g id="Page-1" stroke="none" stroke-width="1" fill="none" fill-rule="evenodd">
        <g id="landing-page" transform="translate(-728.000000, -715.000000)" fill-rule="nonzero">
            <g id="Group-4" transform="translate(728.000000, 715.000000)">
                <g id="antivirus">
                    <path d="M30,0 C30,0 20.9086364,10.8965517 0,10.8965517 L0,36.8916379 C0,50.4660172 5.90181818,63.5568621 16.5872727,71.9444828 C20.3686364,74.9137931 24.8290909,77.4676724 30,79 C35.1709091,77.4676724 39.63,74.9137931 43.4127273,71.9444828 C54.0981818,63.5568621 60,50.4660172 60,36.8916379 L60,10.8965517 C39.0913636,10.8965517 30,0 30,0 Z" id="Shape" fill="#2F80ED"></path>
                    <path d="M0,10.8965517 L0,36.8916379 C0,50.4660172 5.90181818,63.5568621 16.5872727,71.9444828 C20.3686364,74.9137931 24.8290909,77.4676724 30,79 L30,0 C30,0 20.9086364,10.8965517 0,10.8965517 Z" id="Shape" fill="#0575E6"></path>
                    <path d="M30,71 C27.080875,69.8597112 24.25525,68.2279893 21.574,66.1294746 C13.07375,59.4793867 8,48.7239853 8,37.3580571 L8,18.9368483 C18.162625,17.6459812 25.378625,14.1265543 30,11 C34.621375,14.1265543 41.837375,17.6459812 52,18.9368483 L52,37.3580571 C52,48.7239853 46.92625,59.4793867 38.427375,66.1294746 C35.74475,68.2279893 32.919125,69.8597112 30,71 Z" id="Shape" fill="#0575E6"></path>
                    <path d="M8,18.9356605 L8,37.3572895 C8,48.7234771 13.07375,59.4791239 21.574,66.1293634 C24.25525,68.2279261 27.080875,69.8596851 30,71 L30,11 C25.378625,14.1252567 18.162625,17.6461328 8,18.9356605 Z" id="Shape" fill="url(#linearGradient-1)"></path>
                </g>
            </g>
        </g>
    </g>
</svg>